<svg width="62" height="48" viewBox="0 0 62 48" fill="none" xmlns="http://www.w3.org/2000/svg">
<path d="M30.9962 26.3316C28.4255 26.3316 26.3277 28.2047 26.3277 30.5C26.3277 32.7953 28.4255 34.6684 30.9962 34.6684C33.5669 34.6684 35.6648 32.7953 35.6648 30.5C35.6648 28.2047 33.5669 26.3316 30.9962 26.3316ZM44.9984 30.5C44.9984 28.7738 45.0159 27.0633 44.9074 25.3403C44.7988 23.3389 44.2875 21.5627 42.6484 20.0992C41.0058 18.6326 39.02 18.1792 36.7785 18.0822C34.8453 17.9853 32.9295 18.0009 30.9997 18.0009C29.0665 18.0009 27.1507 17.9853 25.2209 18.0822C22.9795 18.1792 20.9902 18.6357 19.3511 20.0992C17.7085 21.5658 17.2007 23.3389 17.0921 25.3403C16.9835 27.0664 17.001 28.777 17.001 30.5C17.001 32.223 16.9835 33.9367 17.0921 35.6597C17.2007 37.6611 17.712 39.4373 19.3511 40.9008C20.9937 42.3674 22.9795 42.8208 25.2209 42.9178C27.1542 43.0147 29.07 42.9991 30.9997 42.9991C32.933 42.9991 34.8488 43.0147 36.7785 42.9178C39.02 42.8208 41.0093 42.3643 42.6484 40.9008C44.291 39.4342 44.7988 37.6611 44.9074 35.6597C45.0195 33.9367 44.9984 32.2262 44.9984 30.5V30.5ZM30.9962 36.9137C27.0211 36.9137 23.813 34.0493 23.813 30.5C23.813 26.9507 27.0211 24.0863 30.9962 24.0863C34.9713 24.0863 38.1795 26.9507 38.1795 30.5C38.1795 34.0493 34.9713 36.9137 30.9962 36.9137ZM38.4737 25.3215C37.5455 25.3215 36.796 24.6523 36.796 23.8236C36.796 22.9949 37.5455 22.3257 38.4737 22.3257C39.4018 22.3257 40.1513 22.9949 40.1513 23.8236C40.1515 24.0204 40.1083 24.2153 40.0241 24.3971C39.9399 24.579 39.8163 24.7442 39.6605 24.8833C39.5047 25.0225 39.3196 25.1328 39.116 25.208C38.9123 25.2832 38.694 25.3217 38.4737 25.3215V25.3215Z" fill="black"/>
</svg>
