<svg width="61" height="61" viewBox="0 0 61 61" fill="none" xmlns="http://www.w3.org/2000/svg">
<path d="M38.8333 25.8451C38.2257 26.1163 37.5692 26.3008 36.8639 26.3984C37.6018 25.9644 38.1063 25.3296 38.3776 24.4941C37.6723 24.9065 36.9453 25.1832 36.1966 25.3242C35.5347 24.6081 34.7046 24.25 33.7064 24.25C32.7624 24.25 31.9567 24.5837 31.2894 25.251C30.6221 25.9183 30.2884 26.724 30.2884 27.668C30.2884 27.9826 30.3155 28.2431 30.3698 28.4492C28.9701 28.3733 27.6571 28.0206 26.431 27.3913C25.2049 26.7619 24.1632 25.921 23.306 24.8685C22.9913 25.411 22.834 25.9861 22.834 26.5937C22.834 27.8307 23.3277 28.7802 24.3151 29.4421C23.8051 29.4312 23.2626 29.2901 22.6875 29.0189V29.0514C22.6875 29.8652 22.9588 30.5895 23.5013 31.2243C24.0438 31.859 24.7112 32.2524 25.5033 32.4043C25.1886 32.4911 24.9119 32.5345 24.6732 32.5345C24.5321 32.5345 24.3205 32.5128 24.0384 32.4694C24.2663 33.153 24.6705 33.7172 25.251 34.1621C25.8315 34.607 26.4907 34.8349 27.2285 34.8457C25.9698 35.8223 24.5538 36.3105 22.9805 36.3105C22.6984 36.3105 22.4271 36.2943 22.1667 36.2617C23.7726 37.2817 25.5195 37.7917 27.4076 37.7917C28.6228 37.7917 29.7622 37.5991 30.8255 37.2139C31.8889 36.8287 32.8003 36.3133 33.5599 35.6676C34.3194 35.022 34.9732 34.2788 35.5212 33.4378C36.0691 32.5969 36.476 31.718 36.7419 30.8011C37.0077 29.8842 37.1406 28.9701 37.1406 28.0586C37.1406 27.8633 37.1352 27.7168 37.1243 27.6191C37.8079 27.1309 38.3776 26.5395 38.8333 25.8451ZM43 22.6875V38.3125C43 39.6037 42.5416 40.7078 41.6247 41.6247C40.7078 42.5416 39.6037 43 38.3125 43H22.6875C21.3963 43 20.2922 42.5416 19.3753 41.6247C18.4584 40.7078 18 39.6037 18 38.3125V22.6875C18 21.3963 18.4584 20.2922 19.3753 19.3753C20.2922 18.4584 21.3963 18 22.6875 18H38.3125C39.6037 18 40.7078 18.4584 41.6247 19.3753C42.5416 20.2922 43 21.3963 43 22.6875Z" fill="black"/>
</svg>
