<svg id="svg" version="1.1" xmlns="http://www.w3.org/2000/svg" xmlns:xlink="http://www.w3.org/1999/xlink" width="400" height="226.30208333333334" viewBox="0, 0, 400,226.30208333333334"><g id="svgg"><path id="path0" d="M199.434 77.293 C 199.434 127.756,199.366 146.705,199.184 146.817 C 199.009 146.925,199.026 147.031,199.240 147.167 C 199.497 147.330,199.496 147.362,199.233 147.365 C 198.982 147.368,198.949 147.662,199.067 148.820 C 199.149 149.618,199.138 150.305,199.042 150.348 C 198.875 150.421,198.134 152.881,197.995 153.820 C 197.848 154.824,197.556 155.744,197.386 155.744 C 197.287 155.744,197.081 156.126,196.929 156.593 C 196.777 157.060,196.515 157.643,196.346 157.889 C 196.177 158.134,196.038 158.511,196.038 158.726 C 196.038 158.941,195.906 159.199,195.744 159.298 C 195.582 159.398,195.171 159.963,194.829 160.555 C 194.488 161.146,194.105 161.630,193.978 161.630 C 193.852 161.630,193.811 161.732,193.888 161.856 C 193.965 161.981,193.945 162.083,193.845 162.083 C 193.744 162.083,193.380 162.530,193.035 163.075 C 191.841 164.965,187.445 168.874,186.514 168.874 C 186.391 168.874,186.229 169.034,186.154 169.230 C 186.079 169.425,185.484 169.822,184.832 170.110 C 184.179 170.398,183.582 170.738,183.503 170.865 C 183.425 170.992,182.316 171.431,181.041 171.840 C 179.765 172.248,178.670 172.645,178.608 172.722 C 178.073 173.381,171.419 173.965,168.179 173.638 C 165.168 173.334,162.988 172.955,162.988 172.735 C 162.988 172.651,162.453 172.447,161.800 172.282 C 161.146 172.118,160.336 171.844,160.000 171.673 C 159.664 171.503,159.185 171.364,158.936 171.364 C 158.687 171.364,158.391 171.200,158.279 171.000 C 158.092 170.665,158.064 170.665,157.936 170.999 C 157.737 171.517,161.336 175.217,163.688 176.912 C 180.954 189.352,204.520 180.157,209.235 159.140 L 209.718 156.989 209.785 86.757 L 209.853 16.525 222.131 16.522 C 228.884 16.520,234.548 16.430,234.717 16.323 C 234.971 16.162,234.981 15.794,234.774 14.253 C 234.635 13.222,234.522 11.376,234.522 10.151 L 234.522 7.923 216.978 7.923 L 199.434 7.923 199.434 77.293 M256.706 48.851 C 256.706 50.207,265.896 57.127,271.006 59.619 C 274.182 61.167,280.577 63.379,281.890 63.384 C 281.984 63.384,282.060 61.667,282.060 59.568 L 282.060 55.751 278.632 55.588 C 276.747 55.498,275.040 55.339,274.840 55.234 C 274.640 55.130,273.113 54.790,271.445 54.479 C 269.778 54.168,268.338 53.791,268.245 53.640 C 268.152 53.489,267.962 53.436,267.824 53.521 C 267.685 53.607,267.572 53.569,267.572 53.437 C 267.572 53.305,267.311 53.198,266.992 53.198 C 266.421 53.198,265.167 52.741,262.932 51.719 C 262.309 51.434,261.290 50.971,260.668 50.689 C 260.045 50.408,259.483 50.100,259.418 50.004 C 259.353 49.909,258.793 49.599,258.173 49.317 C 257.553 49.034,256.969 48.765,256.876 48.718 C 256.783 48.671,256.706 48.731,256.706 48.851 M164.686 81.632 C 162.195 81.879,156.975 82.697,156.876 82.856 C 156.813 82.956,155.947 83.203,154.951 83.406 C 152.592 83.888,150.454 84.475,150.311 84.681 C 150.249 84.771,149.638 85.015,148.953 85.225 C 146.673 85.921,145.780 86.285,145.894 86.469 C 145.956 86.569,145.661 86.716,145.239 86.795 C 144.493 86.935,143.305 87.412,142.615 87.850 C 142.428 87.968,141.638 88.373,140.860 88.750 C 140.082 89.127,139.445 89.544,139.445 89.677 C 139.445 89.810,139.287 89.858,139.094 89.783 C 138.893 89.706,138.802 89.744,138.881 89.872 C 138.957 89.996,138.874 90.096,138.697 90.096 C 138.520 90.096,138.104 90.309,137.772 90.570 C 137.441 90.830,137.020 91.065,136.837 91.092 C 136.654 91.119,136.296 91.365,136.042 91.637 C 135.787 91.910,135.451 92.134,135.294 92.134 C 135.138 92.134,134.658 92.487,134.228 92.919 C 133.798 93.350,133.330 93.707,133.187 93.711 C 133.045 93.715,132.601 94.024,132.201 94.397 C 131.802 94.771,131.401 95.076,131.312 95.076 C 131.222 95.076,130.909 95.331,130.617 95.642 C 130.324 95.954,129.950 96.208,129.785 96.208 C 129.620 96.208,129.485 96.361,129.485 96.548 C 129.485 96.735,129.397 96.887,129.289 96.887 C 129.182 96.887,128.591 97.382,127.977 97.987 C 127.362 98.592,126.636 99.206,126.361 99.353 C 126.087 99.500,125.863 99.732,125.863 99.868 C 125.863 100.153,124.990 100.962,124.683 100.962 C 124.570 100.962,124.537 101.057,124.608 101.172 C 124.679 101.288,124.531 101.448,124.278 101.528 C 124.026 101.608,123.868 101.754,123.929 101.851 C 123.989 101.948,123.787 102.264,123.479 102.553 C 123.172 102.842,122.920 102.989,122.920 102.880 C 122.920 102.771,122.640 103.100,122.298 103.610 C 121.784 104.376,120.717 105.770,119.536 107.220 C 119.420 107.362,119.387 107.540,119.463 107.616 C 119.538 107.691,119.484 107.753,119.342 107.753 C 119.200 107.753,118.937 108.033,118.757 108.376 C 118.578 108.718,118.228 109.213,117.980 109.476 C 117.732 109.738,117.315 110.350,117.053 110.834 C 116.453 111.944,116.087 112.523,115.753 112.890 C 115.609 113.048,115.260 113.689,114.977 114.314 C 114.695 114.939,114.372 115.450,114.259 115.450 C 114.146 115.450,114.096 115.576,114.148 115.731 C 114.199 115.885,114.108 116.145,113.946 116.307 C 113.784 116.469,113.544 117.001,113.412 117.488 C 113.281 117.975,113.075 118.435,112.954 118.510 C 112.833 118.585,112.733 118.851,112.733 119.101 C 112.733 119.352,112.590 119.701,112.414 119.876 C 112.238 120.052,111.875 120.903,111.608 121.768 C 111.340 122.633,110.975 123.462,110.795 123.611 C 110.616 123.759,110.470 124.108,110.470 124.384 C 110.470 124.661,110.263 125.489,110.010 126.224 C 109.757 126.959,109.499 127.914,109.436 128.345 C 109.373 128.776,109.238 129.183,109.136 129.250 C 108.952 129.372,108.866 129.803,107.970 135.144 C 107.362 138.767,107.406 153.276,108.034 156.084 C 108.229 156.955,108.514 158.458,108.669 159.423 C 108.823 160.388,109.032 161.177,109.133 161.177 C 109.235 161.177,109.382 161.559,109.462 162.026 C 109.666 163.224,110.468 165.877,110.950 166.950 C 111.174 167.448,111.567 168.535,111.823 169.365 C 112.079 170.196,112.363 170.909,112.454 170.950 C 112.545 170.991,112.859 171.585,113.151 172.269 C 113.443 172.954,113.821 173.769,113.992 174.080 C 114.162 174.392,114.610 175.249,114.988 175.985 C 115.365 176.722,115.817 177.486,115.991 177.683 C 116.166 177.880,116.572 178.591,116.893 179.262 C 117.214 179.933,117.683 180.626,117.935 180.803 C 118.187 180.979,118.393 181.227,118.393 181.353 C 118.393 181.639,119.586 183.387,120.328 184.187 C 120.633 184.517,120.883 184.930,120.883 185.106 C 120.883 185.282,120.977 185.367,121.092 185.296 C 121.208 185.225,121.590 185.579,121.941 186.084 C 122.293 186.588,123.268 187.709,124.109 188.575 C 124.949 189.441,125.637 190.252,125.637 190.378 C 125.637 190.503,125.751 190.606,125.891 190.606 C 126.031 190.606,126.624 191.089,127.208 191.681 C 128.385 192.874,129.105 193.503,130.617 194.658 C 131.177 195.087,131.737 195.562,131.862 195.713 C 132.066 195.962,132.753 196.440,134.720 197.701 C 135.640 198.290,135.527 197.870,134.451 196.699 C 115.542 176.131,112.165 146.086,126.048 121.937 C 126.818 120.598,127.448 119.456,127.448 119.398 C 127.448 119.121,130.446 115.041,132.216 112.910 C 143.133 99.768,159.052 91.540,175.974 90.292 C 180.329 89.971,179.990 90.356,179.915 85.836 L 179.853 82.092 179.174 81.885 C 178.490 81.677,166.371 81.465,164.686 81.632 " stroke="none" fill="#04f1e9" fill-rule="evenodd"></path><path id="path1" d="M235.099 17.600 C 235.186 18.316,235.388 19.310,235.550 19.808 C 235.711 20.306,236.057 21.444,236.319 22.336 C 237.324 25.770,240.268 32.188,241.449 33.521 C 241.623 33.717,241.766 33.951,241.766 34.040 C 241.766 34.129,241.868 34.324,241.992 34.475 C 242.117 34.625,242.693 35.410,243.273 36.220 C 246.447 40.651,250.461 44.529,255.224 47.766 L 256.344 48.528 255.793 47.753 C 255.489 47.327,255.087 46.814,254.898 46.614 C 254.710 46.413,254.352 45.962,254.103 45.611 C 253.854 45.260,253.548 44.862,253.424 44.726 C 252.908 44.162,251.391 41.774,251.443 41.607 C 251.474 41.508,251.405 41.426,251.290 41.426 C 251.074 41.426,250.368 40.167,250.368 39.783 C 250.368 39.664,250.113 39.265,249.802 38.895 C 249.491 38.525,249.236 38.103,249.235 37.957 C 249.235 37.811,248.980 37.190,248.669 36.577 C 248.358 35.965,248.104 35.328,248.104 35.163 C 248.104 34.997,248.016 34.861,247.909 34.861 C 247.723 34.861,246.746 32.069,246.746 31.535 C 246.746 31.393,246.635 31.240,246.499 31.195 C 246.362 31.149,246.240 30.733,246.227 30.270 C 246.214 29.807,246.131 29.428,246.043 29.428 C 245.955 29.428,245.936 29.225,246.001 28.976 C 246.066 28.727,246.013 28.523,245.883 28.523 C 245.606 28.523,245.228 26.783,245.035 24.618 C 244.960 23.778,244.823 23.090,244.730 23.090 C 244.637 23.090,244.604 22.796,244.656 22.438 C 244.709 22.079,244.640 21.716,244.504 21.632 C 244.347 21.535,244.256 20.523,244.256 18.889 L 244.256 16.299 239.599 16.299 L 234.942 16.299 235.099 17.600 M282.211 63.535 C 282.128 63.618,282.060 69.730,282.060 77.118 L 282.060 90.549 280.645 90.547 C 266.104 90.527,249.076 85.278,236.812 77.036 C 235.644 76.251,234.603 75.608,234.499 75.608 C 234.395 75.608,234.275 92.646,234.232 113.469 C 234.148 154.039,234.197 152.209,233.044 158.121 C 232.664 160.075,231.044 165.841,230.565 166.950 C 230.403 167.323,229.944 168.466,229.544 169.489 C 221.425 190.268,200.408 206.070,177.816 208.382 C 164.335 209.762,149.087 206.571,139.111 200.282 C 136.821 198.838,136.202 198.508,136.504 198.893 C 137.373 199.998,140.812 203.085,141.934 203.767 C 142.308 203.995,142.615 204.261,142.615 204.359 C 142.615 204.457,142.988 204.739,143.445 204.985 C 143.902 205.231,144.640 205.761,145.086 206.163 C 145.532 206.565,146.040 206.896,146.215 206.899 C 146.390 206.902,146.849 207.143,147.234 207.435 C 147.619 207.727,148.546 208.302,149.293 208.714 C 150.040 209.125,150.702 209.526,150.764 209.604 C 150.826 209.683,151.310 209.937,151.839 210.171 C 152.368 210.404,152.801 210.656,152.802 210.730 C 152.802 210.805,153.052 210.880,153.357 210.898 C 153.663 210.915,154.179 211.140,154.505 211.396 C 154.831 211.652,155.642 212.020,156.308 212.214 C 156.973 212.407,157.552 212.642,157.593 212.734 C 157.669 212.905,160.944 213.993,162.196 214.263 C 162.569 214.344,163.028 214.542,163.214 214.703 C 163.401 214.864,163.962 215.062,164.460 215.142 C 166.964 215.545,168.195 215.836,168.195 216.025 C 168.195 216.140,168.449 216.171,168.761 216.093 C 169.072 216.015,169.327 216.029,169.327 216.125 C 169.327 216.220,169.982 216.306,170.783 216.315 C 171.690 216.325,172.386 216.453,172.629 216.655 C 173.183 217.115,188.181 217.134,188.985 216.676 C 189.289 216.503,190.390 216.346,191.557 216.309 C 192.680 216.273,193.664 216.144,193.743 216.021 C 193.883 215.806,195.210 215.460,197.031 215.165 C 197.515 215.086,198.278 214.825,198.726 214.585 C 199.174 214.345,199.724 214.148,199.947 214.148 C 200.304 214.148,202.557 213.475,203.509 213.084 C 203.696 213.007,203.925 212.961,204.018 212.980 C 204.111 213.000,204.188 212.931,204.188 212.826 C 204.188 212.722,204.621 212.506,205.150 212.347 C 206.714 211.878,207.357 211.613,207.357 211.441 C 207.357 211.195,208.493 210.728,208.732 210.876 C 208.847 210.948,208.942 210.913,208.942 210.800 C 208.942 210.687,209.374 210.401,209.902 210.165 C 210.430 209.928,211.041 209.556,211.260 209.338 C 211.479 209.120,211.802 208.942,211.977 208.942 C 212.153 208.942,212.725 208.662,213.247 208.319 C 213.770 207.977,214.213 207.741,214.230 207.795 C 214.247 207.849,214.556 207.620,214.917 207.286 C 215.278 206.951,215.679 206.678,215.808 206.678 C 215.937 206.678,216.254 206.482,216.511 206.242 C 216.768 206.003,217.118 205.773,217.290 205.733 C 217.462 205.692,217.827 205.456,218.102 205.207 C 218.377 204.958,218.984 204.448,219.451 204.075 C 220.470 203.261,222.030 201.954,223.641 200.566 C 224.291 200.006,224.917 199.573,225.032 199.604 C 225.147 199.635,225.241 199.541,225.241 199.395 C 225.241 199.249,225.701 198.689,226.263 198.150 C 226.826 197.611,227.215 197.170,227.129 197.170 C 227.043 197.170,227.338 196.788,227.786 196.321 C 229.043 195.011,231.245 192.361,231.549 191.794 C 231.699 191.514,231.970 191.285,232.153 191.285 C 232.335 191.285,232.486 191.157,232.489 191.002 C 232.494 190.647,233.649 188.840,234.277 188.205 C 234.536 187.943,234.748 187.580,234.748 187.399 C 234.748 187.217,234.932 186.871,235.157 186.630 C 235.564 186.194,235.654 186.019,235.654 185.668 C 235.654 185.567,235.843 185.281,236.074 185.033 C 236.306 184.784,236.622 184.198,236.776 183.729 C 236.931 183.261,237.200 182.822,237.374 182.756 C 237.548 182.689,237.692 182.518,237.693 182.375 C 237.694 182.233,237.946 181.607,238.252 180.985 C 238.558 180.362,238.812 179.716,238.816 179.548 C 238.820 179.381,239.006 178.973,239.231 178.643 C 239.455 178.312,239.817 177.456,240.035 176.740 C 240.252 176.024,240.524 175.439,240.638 175.439 C 240.753 175.439,240.787 175.286,240.716 175.099 C 240.644 174.912,240.709 174.759,240.860 174.759 C 241.011 174.759,241.081 174.619,241.016 174.448 C 240.950 174.277,241.050 173.844,241.238 173.486 C 241.426 173.128,241.725 172.173,241.904 171.364 C 242.082 170.555,242.289 169.612,242.364 169.270 C 242.440 168.928,242.584 168.647,242.686 168.647 C 242.787 168.647,242.936 168.164,243.016 167.572 C 243.096 166.981,243.377 165.325,243.640 163.894 C 244.112 161.322,244.119 160.821,244.198 122.637 C 244.242 101.378,244.330 83.984,244.395 83.984 C 244.583 83.984,245.490 84.490,245.614 84.663 C 245.676 84.751,246.415 85.215,247.255 85.696 C 248.096 86.177,248.783 86.651,248.783 86.749 C 248.783 86.847,248.924 86.927,249.095 86.927 C 249.267 86.927,249.525 87.070,249.670 87.244 C 249.815 87.419,250.198 87.628,250.521 87.709 C 250.844 87.790,251.426 88.086,251.814 88.367 C 252.201 88.647,252.894 89.069,253.353 89.304 C 253.813 89.539,254.127 89.831,254.052 89.952 C 253.970 90.084,254.081 90.110,254.328 90.015 C 254.595 89.912,255.044 90.058,255.605 90.429 C 256.081 90.744,256.571 91.002,256.694 91.002 C 257.095 91.002,258.517 91.759,258.517 91.973 C 258.517 92.088,258.658 92.128,258.829 92.062 C 259.001 91.996,259.230 92.023,259.339 92.121 C 259.447 92.219,260.300 92.582,261.234 92.927 C 262.168 93.272,263.092 93.694,263.289 93.863 C 263.485 94.032,263.839 94.171,264.074 94.171 C 264.515 94.171,266.466 94.844,266.667 95.065 C 266.729 95.133,267.178 95.216,267.665 95.249 C 268.153 95.282,268.663 95.401,268.800 95.515 C 268.937 95.629,269.558 95.839,270.178 95.981 C 272.696 96.558,274.262 96.970,274.477 97.111 C 274.601 97.193,275.033 97.280,275.437 97.304 C 275.840 97.327,276.961 97.501,277.927 97.689 C 279.789 98.052,286.198 98.680,288.498 98.725 C 289.253 98.739,289.991 98.848,290.138 98.967 C 290.286 99.085,290.744 99.150,291.157 99.110 L 291.907 99.038 291.907 81.720 L 291.907 64.403 289.530 64.262 C 286.357 64.074,284.550 63.828,284.550 63.585 C 284.550 63.353,282.437 63.309,282.211 63.535 M179.740 103.533 C 179.740 116.714,179.723 117.261,179.323 117.261 C 179.094 117.261,177.897 117.038,176.663 116.765 C 173.439 116.053,168.142 116.062,164.799 116.785 C 162.257 117.335,157.787 118.970,157.486 119.460 C 157.385 119.623,156.825 120.000,156.241 120.298 C 153.205 121.847,149.151 125.636,146.848 129.076 C 137.733 142.691,141.869 161.552,155.782 169.817 C 157.519 170.849,157.858 170.853,156.999 169.832 C 156.682 169.456,156.423 168.984,156.423 168.785 C 156.423 168.585,156.339 168.421,156.236 168.421 C 156.003 168.421,154.508 165.506,154.474 164.984 C 154.460 164.775,154.298 164.452,154.113 164.268 C 153.929 164.083,153.597 163.185,153.377 162.271 C 153.158 161.358,152.863 160.470,152.722 160.297 C 152.582 160.124,152.477 159.360,152.489 158.599 C 152.501 157.838,152.414 157.153,152.295 157.076 C 152.175 156.998,152.080 155.459,152.080 153.594 C 152.080 151.728,152.175 150.189,152.295 150.111 C 152.414 150.035,152.501 149.348,152.489 148.586 C 152.477 147.824,152.588 146.958,152.737 146.662 C 152.885 146.366,153.219 145.385,153.479 144.482 C 153.740 143.580,154.061 142.841,154.193 142.841 C 154.326 142.841,154.373 142.682,154.299 142.488 C 154.168 142.146,155.785 138.908,156.221 138.639 C 156.336 138.567,156.372 138.414,156.300 138.298 C 156.229 138.182,156.256 138.087,156.361 138.087 C 156.466 138.087,156.734 137.780,156.956 137.404 C 157.178 137.028,157.453 136.779,157.568 136.850 C 157.682 136.921,157.719 136.830,157.650 136.648 C 157.573 136.450,157.921 135.902,158.519 135.278 C 159.068 134.706,159.480 134.201,159.435 134.157 C 159.314 134.036,162.214 131.368,163.174 130.716 C 164.500 129.816,165.569 129.059,165.865 128.810 C 166.015 128.683,166.299 128.580,166.494 128.580 C 166.690 128.580,166.909 128.427,166.981 128.240 C 167.053 128.053,167.239 127.900,167.395 127.900 C 167.551 127.900,168.278 127.596,169.012 127.224 C 169.745 126.852,170.625 126.547,170.968 126.545 C 171.310 126.543,171.590 126.454,171.590 126.346 C 171.590 126.111,173.737 125.500,175.325 125.282 C 175.948 125.197,176.600 125.012,176.775 124.872 C 177.216 124.520,184.309 124.524,184.742 124.877 C 184.916 125.020,185.791 125.249,186.685 125.386 C 187.579 125.524,188.547 125.723,188.835 125.830 C 189.973 126.251,189.926 126.993,189.926 108.314 C 189.926 98.682,189.843 90.750,189.740 90.687 C 189.421 90.490,185.876 90.122,182.739 89.960 L 179.740 89.806 179.740 103.533 " stroke="none" fill="#fa044b" fill-rule="evenodd"></path><path id="path2" d="M209.785 86.755 L 209.718 156.989 209.235 159.140 C 204.620 179.711,181.943 189.061,164.602 177.542 C 162.577 176.197,159.120 173.043,158.202 171.702 C 157.912 171.279,157.424 170.871,157.118 170.794 C 155.163 170.303,149.299 165.201,147.106 162.083 C 140.797 153.112,139.974 141.771,144.915 131.892 C 147.095 127.535,151.516 122.772,155.645 120.334 C 156.384 119.897,157.102 119.444,157.240 119.327 C 158.135 118.567,162.481 116.921,165.139 116.335 C 167.248 115.870,174.647 115.947,176.797 116.457 C 177.731 116.678,178.724 116.911,179.004 116.973 L 179.513 117.087 179.513 103.698 C 179.513 92.202,179.467 90.291,179.185 90.182 C 178.602 89.959,172.576 90.540,169.377 91.128 C 152.657 94.203,138.514 103.487,128.278 118.107 C 127.821 118.760,127.448 119.341,127.448 119.398 C 127.448 119.456,126.818 120.598,126.048 121.937 C 115.432 140.403,114.750 163.031,124.240 181.946 C 127.834 189.108,133.699 196.856,136.892 198.660 C 137.487 198.996,138.351 199.510,138.812 199.802 C 155.469 210.339,181.404 211.292,198.868 202.009 C 199.242 201.811,200.057 201.387,200.679 201.068 C 209.383 196.602,219.222 187.487,224.190 179.287 C 224.529 178.727,224.903 178.115,225.020 177.929 C 226.273 175.925,227.785 172.981,228.770 170.628 C 229.096 169.850,229.560 168.776,229.801 168.242 C 230.394 166.932,232.160 161.166,232.485 159.479 C 232.629 158.732,232.851 157.663,232.979 157.102 C 233.919 152.963,233.918 153.013,234.003 113.416 C 234.053 89.795,234.166 75.421,234.300 75.287 C 234.437 75.150,234.703 75.239,235.028 75.530 C 235.310 75.782,236.508 76.585,237.691 77.314 C 238.874 78.043,239.994 78.764,240.181 78.917 C 240.809 79.432,247.515 82.777,250.028 83.829 C 256.182 86.404,260.689 87.714,268.052 89.069 C 270.684 89.553,273.364 89.894,275.183 89.975 C 276.787 90.047,278.939 90.160,279.966 90.226 L 281.834 90.346 281.834 76.874 L 281.834 63.402 280.872 63.154 C 271.926 60.855,265.154 57.147,258.777 51.056 C 257.576 49.909,255.938 48.539,255.138 48.012 C 251.674 45.730,248.189 42.607,245.177 39.087 C 244.982 38.858,244.633 38.451,244.401 38.181 C 240.618 33.771,237.051 26.513,235.425 19.921 L 234.615 16.638 222.234 16.580 L 209.853 16.521 209.785 86.755 M275.099 55.165 C 275.317 55.221,275.673 55.221,275.891 55.165 C 276.109 55.108,275.931 55.061,275.495 55.061 C 275.059 55.061,274.881 55.108,275.099 55.165 M282.378 59.649 C 282.378 61.641,282.413 62.426,282.455 61.393 C 282.497 60.360,282.497 58.730,282.454 57.771 C 282.412 56.812,282.378 57.657,282.378 59.649 M168.987 81.190 C 171.157 81.356,173.577 81.367,173.480 81.211 C 173.422 81.118,172.184 81.059,170.728 81.081 C 169.272 81.103,168.489 81.152,168.987 81.190 M107.174 145.331 C 107.174 149.004,107.205 150.507,107.243 148.670 C 107.281 146.834,107.281 143.829,107.243 141.992 C 107.205 140.156,107.174 141.658,107.174 145.331 " stroke="none" fill="#040404" fill-rule="evenodd"></path><path id="path3" d="M235.789 21.505 C 235.951 22.377,237.030 25.411,237.139 25.302 C 237.177 25.264,236.855 24.217,236.424 22.973 C 235.994 21.730,235.708 21.070,235.789 21.505 M237.356 26.033 C 237.624 26.904,238.341 28.523,238.459 28.523 C 238.577 28.523,237.488 25.759,237.301 25.580 C 237.235 25.518,237.260 25.722,237.356 26.033 M239.051 29.787 C 239.054 30.051,240.379 32.371,240.527 32.371 C 240.588 32.371,240.313 31.786,239.917 31.070 C 239.080 29.557,239.049 29.512,239.051 29.787 M240.978 33.277 C 241.381 34.020,243.871 37.593,244.073 37.718 C 244.191 37.791,243.602 36.847,242.763 35.620 C 241.306 33.489,240.567 32.520,240.978 33.277 M244.632 38.486 C 244.861 38.764,245.210 39.157,245.407 39.360 C 245.604 39.563,246.366 40.390,247.100 41.200 C 248.501 42.745,252.288 46.185,252.577 46.173 C 252.669 46.170,252.388 45.851,251.952 45.464 C 251.517 45.078,250.418 44.103,249.511 43.297 C 248.605 42.492,247.134 41.003,246.244 39.989 C 244.799 38.341,243.579 37.203,244.632 38.486 M253.650 46.965 C 254.334 47.564,255.122 48.078,255.122 47.924 C 255.122 47.879,254.638 47.510,254.046 47.106 C 253.233 46.549,253.136 46.515,253.650 46.965 M281.888 76.780 C 281.837 89.429,281.808 90.296,281.437 90.393 C 281.066 90.490,281.067 90.498,281.445 90.523 C 282.074 90.564,282.068 90.724,282.004 76.627 L 281.943 63.271 281.888 76.780 M234.174 75.439 C 234.114 75.594,234.092 91.969,234.125 111.828 L 234.184 147.934 234.240 111.632 L 234.295 75.330 234.918 75.731 L 235.540 76.131 235.109 75.643 C 234.620 75.090,234.330 75.027,234.174 75.439 M236.084 76.465 C 236.759 77.014,240.605 79.368,240.294 79.041 C 240.092 78.828,236.328 76.411,235.767 76.134 C 235.642 76.072,235.785 76.221,236.084 76.465 M241.539 79.787 C 241.539 79.941,243.583 81.110,243.682 81.012 C 243.729 80.965,243.266 80.647,242.653 80.305 C 242.040 79.963,241.539 79.730,241.539 79.787 M246.180 82.292 C 246.678 82.599,247.187 82.849,247.312 82.848 C 247.436 82.848,247.095 82.593,246.553 82.284 C 245.282 81.557,244.997 81.564,246.180 82.292 M248.783 83.439 C 248.783 83.590,250.865 84.468,250.971 84.362 C 251.019 84.314,250.546 84.063,249.920 83.803 C 249.295 83.543,248.783 83.379,248.783 83.439 M252.424 84.976 C 252.619 85.155,255.867 86.257,255.951 86.173 C 256.000 86.124,255.282 85.816,254.357 85.487 C 252.774 84.925,252.205 84.775,252.424 84.976 M258.857 87.119 C 259.557 87.418,260.730 87.650,260.328 87.409 C 260.141 87.297,259.632 87.142,259.196 87.065 C 258.662 86.970,258.551 86.988,258.857 87.119 M266.294 88.970 C 266.649 89.077,267.515 89.217,268.218 89.282 C 269.476 89.397,269.472 89.394,267.912 89.083 C 266.153 88.731,265.297 88.672,266.294 88.970 M181.777 89.656 C 182.835 89.749,184.312 89.819,185.059 89.812 C 186.266 89.801,186.203 89.781,184.493 89.631 C 183.435 89.538,181.958 89.468,181.211 89.475 C 180.004 89.486,180.067 89.506,181.777 89.656 M179.460 103.616 L 179.520 117.093 178.894 116.951 C 178.550 116.873,177.606 116.660,176.797 116.477 C 175.988 116.294,175.020 116.151,174.646 116.157 C 174.273 116.164,174.731 116.308,175.665 116.476 C 176.599 116.645,177.788 116.901,178.307 117.046 C 178.826 117.191,179.361 117.242,179.495 117.159 C 179.779 116.984,179.852 90.419,179.570 90.244 C 179.477 90.187,179.427 96.204,179.460 103.616 M276.514 90.240 C 278.117 90.408,280.250 90.423,280.249 90.266 C 280.249 90.173,279.256 90.113,278.042 90.132 C 276.828 90.152,276.140 90.201,276.514 90.240 M168.591 116.062 C 168.871 116.116,169.329 116.116,169.610 116.062 C 169.890 116.008,169.660 115.964,169.100 115.964 C 168.540 115.964,168.311 116.008,168.591 116.062 M172.215 116.063 C 172.497 116.117,172.904 116.115,173.121 116.058 C 173.337 116.002,173.107 115.957,172.609 115.960 C 172.111 115.962,171.934 116.009,172.215 116.063 M164.935 116.382 C 163.348 116.754,161.594 117.301,161.688 117.394 C 161.738 117.445,162.331 117.320,163.006 117.119 C 163.681 116.917,164.946 116.620,165.818 116.461 C 166.790 116.282,167.096 116.171,166.610 116.172 C 166.174 116.173,165.421 116.268,164.935 116.382 M159.253 118.265 C 157.766 118.981,158.056 119.003,159.620 118.293 C 160.290 117.989,160.736 117.735,160.611 117.730 C 160.487 117.724,159.875 117.965,159.253 118.265 M155.626 120.325 C 154.882 120.766,153.865 121.491,153.367 121.936 C 152.362 122.836,152.662 122.691,154.046 121.609 C 154.544 121.220,155.512 120.594,156.197 120.217 C 156.882 119.841,157.338 119.531,157.210 119.529 C 157.083 119.526,156.370 119.885,155.626 120.325 M151.316 123.656 L 150.651 124.392 151.387 123.727 C 151.791 123.361,152.122 123.030,152.122 122.991 C 152.122 122.816,151.935 122.970,151.316 123.656 M149.161 125.806 C 147.849 127.196,147.258 127.900,147.402 127.900 C 147.451 127.900,148.183 127.136,149.029 126.203 C 150.840 124.204,150.930 123.932,149.161 125.806 M146.503 129.089 C 145.805 130.105,143.738 134.108,143.758 134.404 C 143.765 134.500,144.325 133.509,145.004 132.201 C 145.683 130.894,146.495 129.443,146.807 128.976 C 147.119 128.509,147.327 128.127,147.269 128.127 C 147.211 128.127,146.867 128.560,146.503 129.089 M143.113 136.208 C 142.971 136.669,142.893 137.083,142.939 137.129 C 142.985 137.175,143.144 136.842,143.294 136.389 C 143.443 135.937,143.521 135.523,143.467 135.469 C 143.414 135.415,143.254 135.748,143.113 136.208 M142.088 139.873 C 142.004 140.292,141.947 140.850,141.960 141.115 C 141.974 141.379,142.075 141.138,142.186 140.577 C 142.296 140.017,142.353 139.458,142.313 139.336 C 142.273 139.213,142.171 139.455,142.088 139.873 M141.766 143.860 C 141.769 144.358,141.815 144.535,141.869 144.253 C 141.923 143.972,141.921 143.564,141.865 143.348 C 141.808 143.131,141.764 143.362,141.766 143.860 M141.762 146.689 C 141.762 147.125,141.808 147.303,141.865 147.085 C 141.922 146.868,141.922 146.511,141.865 146.293 C 141.808 146.075,141.762 146.254,141.762 146.689 M141.958 149.425 C 141.970 149.850,142.066 150.453,142.169 150.764 C 142.291 151.129,142.313 150.889,142.229 150.085 C 142.082 148.661,141.925 148.278,141.958 149.425 M233.915 150.311 C 233.915 151.121,233.956 151.452,234.006 151.047 C 234.057 150.642,234.057 149.980,234.006 149.576 C 233.956 149.171,233.915 149.502,233.915 150.311 M233.526 153.390 C 233.441 154.218,233.418 154.942,233.474 154.998 C 233.530 155.055,233.649 154.426,233.737 153.601 C 233.825 152.776,233.849 152.053,233.789 151.993 C 233.729 151.933,233.611 152.562,233.526 153.390 M142.631 152.474 C 142.608 152.813,143.552 155.561,143.657 155.457 C 143.704 155.409,143.497 154.665,143.196 153.803 C 142.895 152.941,142.641 152.343,142.631 152.474 M143.746 156.052 C 143.746 156.298,145.324 159.366,145.450 159.366 C 145.512 159.366,145.193 158.628,144.741 157.725 C 143.894 156.031,143.746 155.784,143.746 156.052 M232.863 157.304 C 232.779 157.722,232.722 158.281,232.736 158.546 C 232.749 158.810,232.851 158.568,232.961 158.008 C 233.071 157.448,233.128 156.889,233.088 156.766 C 233.048 156.644,232.947 156.886,232.863 157.304 M232.384 159.945 C 232.299 160.399,232.274 160.816,232.329 160.871 C 232.385 160.927,232.500 160.600,232.585 160.146 C 232.670 159.692,232.695 159.275,232.639 159.219 C 232.584 159.164,232.469 159.490,232.384 159.945 M146.167 160.742 C 146.392 161.125,146.721 161.558,146.898 161.704 C 147.074 161.850,146.934 161.537,146.585 161.007 C 145.852 159.896,145.563 159.712,146.167 160.742 M231.519 163.154 C 231.320 163.868,231.195 164.491,231.241 164.537 C 231.288 164.583,231.494 164.043,231.700 163.335 C 231.905 162.628,232.030 162.006,231.977 161.952 C 231.924 161.899,231.717 162.440,231.519 163.154 M147.569 162.725 C 147.820 163.079,148.205 163.512,148.424 163.687 C 148.643 163.863,148.478 163.574,148.057 163.045 C 147.194 161.958,146.873 161.748,147.569 162.725 M150.664 166.068 C 151.689 167.078,152.869 168.132,153.287 168.412 C 153.793 168.751,153.706 168.632,153.028 168.056 C 152.467 167.579,151.287 166.524,150.405 165.711 C 149.054 164.466,149.095 164.522,150.664 166.068 M229.614 168.591 C 229.537 168.809,228.974 170.108,228.361 171.477 C 226.915 174.714,226.792 175.161,228.051 172.609 C 229.158 170.365,230.053 168.195,229.871 168.195 C 229.806 168.195,229.691 168.373,229.614 168.591 M226.044 176.130 C 225.265 177.458,224.934 178.262,225.539 177.357 C 226.139 176.457,227.067 174.759,226.959 174.759 C 226.897 174.759,226.485 175.376,226.044 176.130 M224.492 178.778 C 223.681 180.081,223.621 180.192,223.736 180.192 C 223.795 180.192,224.157 179.683,224.540 179.061 C 224.923 178.438,225.188 177.929,225.128 177.929 C 225.069 177.929,224.782 178.311,224.492 178.778 M223.268 180.702 C 222.236 182.051,221.777 182.745,222.012 182.603 C 222.306 182.424,223.747 180.419,223.581 180.419 C 223.528 180.419,223.388 180.546,223.268 180.702 M219.956 185.081 C 218.989 186.275,218.302 187.188,218.429 187.109 C 218.557 187.030,219.294 186.180,220.067 185.220 C 221.824 183.039,221.921 182.909,221.808 182.909 C 221.757 182.909,220.924 183.886,219.956 185.081 M215.393 190.110 C 213.899 191.578,212.117 193.269,211.432 193.868 C 210.409 194.764,210.368 194.823,211.205 194.198 C 212.212 193.447,218.442 187.453,218.223 187.445 C 218.161 187.443,216.887 188.642,215.393 190.110 M208.942 195.727 C 207.490 196.862,207.280 197.149,208.556 196.255 C 209.508 195.588,210.291 194.884,210.045 194.918 C 209.998 194.925,209.502 195.288,208.942 195.727 M205.909 197.957 C 204.569 198.910,204.289 199.190,205.207 198.659 C 205.946 198.231,207.314 197.173,207.130 197.171 C 207.067 197.171,206.518 197.525,205.909 197.957 M136.955 198.828 C 136.955 198.883,137.584 199.303,138.352 199.761 C 139.121 200.218,139.632 200.451,139.488 200.278 C 139.213 199.947,136.955 198.654,136.955 198.828 M203.113 199.686 C 202.341 200.181,202.091 200.512,202.773 200.138 C 203.292 199.852,204.106 199.223,203.962 199.219 C 203.899 199.217,203.517 199.427,203.113 199.686 M141.456 201.483 C 142.374 201.984,143.161 202.359,143.204 202.316 C 143.301 202.219,140.254 200.565,139.984 200.569 C 139.875 200.571,140.537 200.982,141.456 201.483 M200.063 201.336 C 198.748 202.117,198.745 202.267,200.057 201.608 C 200.710 201.280,201.245 200.962,201.245 200.902 C 201.245 200.707,200.922 200.825,200.063 201.336 M197.227 202.736 C 196.822 202.913,196.491 203.109,196.491 203.173 C 196.491 203.291,198.079 202.675,198.272 202.483 C 198.464 202.290,197.974 202.409,197.227 202.736 M144.652 203.056 C 145.088 203.295,145.546 203.490,145.671 203.490 C 145.795 203.490,145.540 203.295,145.105 203.056 C 144.669 202.817,144.211 202.622,144.086 202.622 C 143.962 202.622,144.216 202.817,144.652 203.056 M146.463 203.848 C 146.774 204.026,147.131 204.172,147.255 204.172 C 147.380 204.172,147.227 204.026,146.916 203.848 C 146.604 203.670,146.248 203.525,146.123 203.525 C 145.999 203.525,146.152 203.670,146.463 203.848 M148.926 204.778 C 149.721 205.085,150.411 205.296,150.460 205.247 C 150.561 205.145,147.993 204.180,147.685 204.204 C 147.573 204.212,148.132 204.471,148.926 204.778 M192.233 204.795 C 191.696 204.985,191.296 205.181,191.345 205.229 C 191.449 205.333,193.548 204.643,193.548 204.506 C 193.548 204.364,193.291 204.421,192.233 204.795 M152.141 205.864 C 152.311 206.030,156.686 207.169,156.783 207.073 C 156.835 207.021,155.865 206.707,154.628 206.376 C 152.396 205.777,151.960 205.687,152.141 205.864 M185.625 206.791 C 185.065 206.953,184.810 207.088,185.059 207.091 C 185.308 207.094,185.920 206.962,186.418 206.798 C 187.590 206.411,186.955 206.406,185.625 206.791 M160.781 207.966 C 160.999 208.023,161.355 208.023,161.573 207.966 C 161.791 207.909,161.613 207.862,161.177 207.862 C 160.741 207.862,160.563 207.909,160.781 207.966 M177.476 208.165 L 175.099 208.455 177.250 208.333 C 179.620 208.200,182.089 207.863,180.645 207.871 C 180.209 207.873,178.783 208.005,177.476 208.165 M163.214 208.259 C 164.529 208.454,166.751 208.549,166.591 208.403 C 166.539 208.355,165.478 208.262,164.233 208.196 C 162.597 208.108,162.315 208.126,163.214 208.259 M169.167 208.657 C 170.138 208.700,171.666 208.700,172.563 208.657 C 173.460 208.614,172.666 208.579,170.798 208.579 C 168.930 208.580,168.197 208.615,169.167 208.657 " stroke="none" fill="#60051b" fill-rule="evenodd"></path><path id="path4" d="M234.781 16.274 C 234.566 16.410,234.549 16.515,234.724 16.623 C 234.862 16.709,234.975 16.670,234.975 16.539 C 234.975 16.378,236.500 16.299,239.615 16.299 L 244.256 16.299 244.256 18.889 C 244.256 20.523,244.347 21.535,244.504 21.632 C 244.640 21.716,244.709 22.079,244.656 22.438 C 244.604 22.796,244.635 23.090,244.726 23.090 C 244.889 23.090,244.758 16.914,244.584 16.355 C 244.481 16.022,235.299 15.946,234.781 16.274 M245.198 26.146 C 245.196 26.842,245.782 28.909,245.807 28.297 C 245.815 28.110,245.681 27.397,245.511 26.712 C 245.289 25.826,245.199 25.663,245.198 26.146 M246.211 30.504 C 246.295 30.846,246.449 31.160,246.555 31.202 C 246.660 31.243,246.746 31.489,246.746 31.749 C 246.746 32.008,246.811 32.155,246.890 32.076 C 247.086 31.880,246.512 29.881,246.259 29.881 C 246.149 29.881,246.127 30.161,246.211 30.504 M247.200 33.147 C 247.197 33.561,247.746 34.861,247.923 34.861 C 248.236 34.861,248.118 34.321,247.651 33.616 C 247.404 33.243,247.201 33.032,247.200 33.147 M248.120 35.140 C 248.094 35.408,248.832 37.152,248.930 37.054 C 248.979 37.005,248.820 36.517,248.578 35.970 C 248.335 35.422,248.129 35.049,248.120 35.140 M249.236 37.892 C 249.236 38.223,250.121 39.408,250.134 39.095 C 250.144 38.853,249.480 37.578,249.343 37.578 C 249.284 37.578,249.236 37.719,249.236 37.892 M250.368 39.920 C 250.368 40.193,251.116 41.426,251.282 41.426 C 251.393 41.426,251.274 41.070,251.017 40.634 C 250.605 39.935,250.368 39.675,250.368 39.920 M252.228 43.059 C 252.761 43.832,253.376 44.666,253.594 44.912 C 253.812 45.159,253.990 45.459,253.990 45.581 C 253.990 45.703,254.048 45.744,254.119 45.673 C 254.256 45.537,253.234 43.807,252.704 43.277 C 252.534 43.107,252.242 42.672,252.055 42.310 C 251.868 41.948,251.612 41.653,251.486 41.653 C 251.361 41.653,251.694 42.285,252.228 43.059 M254.443 45.940 C 254.443 46.056,254.750 46.488,255.125 46.899 C 255.500 47.310,255.756 47.780,255.694 47.944 C 255.631 48.107,255.675 48.182,255.792 48.110 C 255.909 48.037,256.117 48.188,256.254 48.444 C 256.391 48.700,256.598 48.850,256.715 48.778 C 256.832 48.706,256.401 47.990,255.757 47.187 C 254.552 45.682,254.443 45.579,254.443 45.940 M282.111 59.553 L 282.060 63.532 282.796 63.407 C 283.510 63.285,283.514 63.280,282.914 63.205 L 282.297 63.129 282.229 59.352 L 282.161 55.574 282.111 59.553 M284.550 63.641 C 284.550 63.720,285.136 63.860,285.852 63.951 C 287.957 64.220,292.020 64.417,292.020 64.250 C 292.020 64.165,291.129 64.043,290.040 63.979 C 288.950 63.915,287.269 63.780,286.304 63.680 C 285.340 63.580,284.550 63.562,284.550 63.641 M169.610 81.435 C 170.325 81.480,171.497 81.480,172.213 81.435 C 172.929 81.390,172.343 81.353,170.911 81.353 C 169.479 81.353,168.894 81.390,169.610 81.435 M244.207 122.071 C 244.171 143.019,244.168 160.201,244.199 160.253 C 244.532 160.808,244.604 154.875,244.659 122.222 C 244.694 101.440,244.801 84.437,244.897 84.437 C 244.992 84.437,245.193 84.559,245.342 84.709 C 245.507 84.873,245.614 84.888,245.614 84.745 C 245.614 84.549,244.687 83.984,244.366 83.984 C 244.314 83.984,244.242 101.123,244.207 122.071 M245.994 85.136 C 246.140 85.312,246.649 85.658,247.125 85.906 C 247.601 86.154,248.042 86.414,248.104 86.483 C 248.684 87.130,250.195 87.877,249.689 87.267 C 249.534 87.080,249.319 86.927,249.211 86.927 C 249.103 86.927,248.830 86.769,248.605 86.576 C 247.970 86.032,245.694 84.778,245.994 85.136 M250.821 88.116 C 251.727 88.746,254.016 89.919,254.125 89.810 C 254.165 89.770,253.820 89.543,253.358 89.307 C 252.896 89.070,252.213 88.657,251.839 88.387 C 251.466 88.118,250.905 87.823,250.594 87.732 C 250.129 87.596,250.170 87.664,250.821 88.116 M179.676 89.783 C 179.586 89.872,179.515 90.056,179.517 90.191 C 179.519 90.325,179.613 90.290,179.726 90.111 C 179.946 89.762,187.177 90.090,189.105 90.537 C 189.654 90.664,189.902 90.660,189.768 90.527 C 189.651 90.409,188.874 90.250,188.043 90.172 C 187.211 90.094,186.530 89.969,186.529 89.894 C 186.526 89.696,179.870 89.589,179.676 89.783 M254.443 90.096 C 254.443 90.221,254.481 90.323,254.528 90.323 C 254.575 90.323,254.983 90.477,255.434 90.665 C 256.461 91.095,256.486 90.956,255.491 90.341 C 254.637 89.813,254.443 89.768,254.443 90.096 M274.762 90.256 C 275.044 90.310,275.451 90.308,275.668 90.252 C 275.884 90.195,275.654 90.151,275.156 90.153 C 274.658 90.156,274.481 90.202,274.762 90.256 M278.498 90.485 C 278.842 90.537,279.351 90.536,279.630 90.482 C 279.908 90.428,279.626 90.386,279.004 90.387 C 278.381 90.389,278.154 90.433,278.498 90.485 M257.185 91.416 C 257.838 91.917,258.517 92.185,258.517 91.942 C 258.517 91.777,257.085 91.002,256.781 91.002 C 256.706 91.002,256.888 91.188,257.185 91.416 M258.852 92.142 C 258.737 92.328,260.284 92.932,260.450 92.766 C 260.500 92.716,260.187 92.514,259.753 92.317 C 259.319 92.121,258.914 92.042,258.852 92.142 M261.573 93.367 C 262.385 93.883,263.271 94.127,263.271 93.834 C 263.271 93.708,262.020 93.165,261.214 92.942 C 260.849 92.841,260.969 92.982,261.573 93.367 M264.743 94.519 C 265.116 94.690,265.574 94.830,265.761 94.831 C 265.948 94.832,265.758 94.683,265.339 94.502 C 264.376 94.084,263.827 94.099,264.743 94.519 M267.119 95.282 C 267.119 95.388,267.572 95.589,268.125 95.729 C 269.463 96.066,269.852 96.047,269.147 95.679 C 268.391 95.284,267.119 95.035,267.119 95.282 M270.968 96.356 C 271.154 96.417,271.511 96.563,271.760 96.679 C 272.304 96.933,274.439 97.340,274.565 97.214 C 274.668 97.111,274.493 97.049,272.744 96.563 C 271.580 96.241,270.089 96.066,270.968 96.356 M275.042 97.355 C 275.042 97.541,278.859 98.126,279.020 97.965 C 279.078 97.908,278.206 97.710,277.084 97.526 C 275.961 97.342,275.042 97.265,275.042 97.355 M281.732 98.454 C 282.124 98.832,291.671 99.533,291.878 99.199 C 291.939 99.100,291.638 99.060,291.209 99.110 C 290.780 99.160,290.304 99.100,290.150 98.976 C 289.996 98.852,289.177 98.738,288.331 98.722 C 287.485 98.706,285.855 98.594,284.709 98.473 C 282.053 98.193,281.458 98.189,281.732 98.454 M170.402 116.062 C 170.682 116.116,171.140 116.116,171.420 116.062 C 171.701 116.008,171.471 115.964,170.911 115.964 C 170.351 115.964,170.122 116.008,170.402 116.062 M177.929 124.650 C 177.493 124.702,176.933 124.840,176.684 124.955 C 176.435 125.071,175.976 125.211,175.665 125.266 C 175.354 125.322,175.863 125.301,176.797 125.219 C 178.956 125.030,182.817 125.031,184.720 125.220 C 185.529 125.300,185.937 125.315,185.625 125.253 C 185.314 125.191,184.939 125.042,184.792 124.921 C 184.512 124.691,179.300 124.485,177.929 124.650 M172.779 125.797 C 172.125 125.990,171.590 126.236,171.590 126.345 C 171.590 126.608,171.674 126.597,172.545 126.222 C 172.954 126.045,173.645 125.801,174.080 125.679 C 174.516 125.557,174.669 125.454,174.420 125.452 C 174.171 125.449,173.432 125.604,172.779 125.797 M188.002 125.873 C 189.127 126.172,189.651 126.224,189.813 126.050 C 189.969 125.882,189.935 125.838,189.702 125.909 C 189.517 125.966,188.915 125.877,188.365 125.711 C 187.815 125.546,187.151 125.419,186.891 125.431 C 186.631 125.442,187.130 125.641,188.002 125.873 M169.440 127.015 C 169.066 127.256,168.384 127.569,167.924 127.709 C 167.463 127.850,167.035 128.098,166.973 128.261 C 166.835 128.619,167.166 128.508,168.840 127.630 C 169.506 127.281,170.188 126.995,170.355 126.995 C 170.522 126.995,170.721 126.893,170.798 126.769 C 171.032 126.390,170.162 126.548,169.440 127.015 M165.931 128.778 C 165.931 128.888,165.635 129.100,165.274 129.249 C 164.913 129.399,164.378 129.793,164.086 130.124 C 163.669 130.596,163.656 130.641,164.025 130.332 C 164.283 130.115,164.606 129.938,164.741 129.938 C 164.877 129.938,165.022 129.859,165.063 129.762 C 165.105 129.666,165.495 129.362,165.931 129.087 C 166.452 128.758,166.588 128.586,166.327 128.583 C 166.109 128.581,165.931 128.669,165.931 128.778 M161.925 131.721 C 160.323 133.067,159.200 134.239,159.513 134.239 C 159.640 134.239,160.112 133.857,160.561 133.390 C 161.892 132.006,162.960 131.070,163.208 131.070 C 163.336 131.070,163.441 130.968,163.441 130.843 C 163.441 130.481,163.310 130.556,161.925 131.721 M158.647 135.090 C 158.332 135.431,157.746 136.220,157.345 136.842 C 156.693 137.854,156.914 137.685,157.937 136.389 C 158.133 136.140,158.553 135.658,158.870 135.316 C 159.187 134.975,159.395 134.645,159.333 134.583 C 159.271 134.521,158.962 134.749,158.647 135.090 M156.300 138.298 C 156.372 138.414,156.336 138.567,156.221 138.639 C 156.012 138.767,154.160 142.027,154.160 142.264 C 154.160 142.726,154.627 142.227,154.944 141.426 C 155.154 140.897,155.624 139.997,155.988 139.426 C 156.708 138.295,156.774 138.087,156.410 138.087 C 156.278 138.087,156.229 138.182,156.300 138.298 M107.400 145.444 C 107.401 149.055,107.432 150.500,107.470 148.656 C 107.508 146.812,107.508 143.858,107.470 142.091 C 107.431 140.325,107.400 141.834,107.400 145.444 M141.988 142.162 C 141.988 142.598,142.035 142.776,142.092 142.558 C 142.148 142.340,142.148 141.984,142.092 141.766 C 142.035 141.548,141.988 141.726,141.988 142.162 M153.702 143.648 C 153.555 144.093,153.496 144.517,153.571 144.592 C 153.646 144.666,153.707 144.583,153.708 144.407 C 153.709 144.230,153.856 143.806,154.034 143.463 C 154.213 143.121,154.271 142.841,154.164 142.841 C 154.056 142.841,153.848 143.204,153.702 143.648 M141.762 145.331 C 141.762 145.767,141.808 145.945,141.865 145.727 C 141.922 145.509,141.922 145.153,141.865 144.935 C 141.808 144.717,141.762 144.895,141.762 145.331 M153.028 145.927 C 153.028 146.172,152.934 146.469,152.820 146.587 C 152.706 146.706,152.541 147.312,152.454 147.934 C 152.230 149.533,152.663 148.974,153.028 147.193 C 153.188 146.412,153.253 145.707,153.173 145.627 C 153.093 145.547,153.028 145.682,153.028 145.927 M198.926 149.745 C 198.866 150.057,198.905 150.311,199.013 150.311 C 199.120 150.311,199.208 150.057,199.208 149.745 C 199.208 149.434,199.169 149.179,199.121 149.179 C 199.073 149.179,198.985 149.434,198.926 149.745 M152.444 159.196 C 152.529 159.726,152.695 160.255,152.813 160.374 C 152.931 160.492,153.028 160.789,153.028 161.034 C 153.028 161.279,153.091 161.416,153.168 161.339 C 153.374 161.133,152.755 158.234,152.505 158.234 C 152.380 158.234,152.355 158.635,152.444 159.196 M153.489 162.671 C 153.473 163.131,153.975 164.346,154.182 164.346 C 154.455 164.346,154.452 164.333,153.942 163.312 C 153.698 162.822,153.494 162.534,153.489 162.671 M243.374 165.048 C 243.220 166.057,243.139 166.927,243.195 166.983 C 243.306 167.094,243.482 166.219,243.711 164.403 C 243.950 162.516,243.684 163.025,243.374 165.048 M154.387 165.195 C 154.388 165.289,154.603 165.671,154.864 166.044 C 155.128 166.422,155.267 166.522,155.176 166.271 C 155.087 166.022,154.962 165.640,154.900 165.422 C 154.789 165.035,154.384 164.857,154.387 165.195 M155.342 166.950 C 155.597 167.639,156.072 168.421,156.235 168.421 C 156.563 168.421,156.439 168.103,155.840 167.402 C 155.520 167.029,155.296 166.825,155.342 166.950 M156.423 168.865 C 156.423 169.021,156.679 169.451,156.991 169.822 C 157.303 170.193,157.507 170.579,157.445 170.680 C 157.382 170.781,157.484 170.922,157.670 170.994 C 158.219 171.204,158.061 170.727,157.216 169.620 C 156.780 169.049,156.423 168.710,156.423 168.865 M242.237 169.793 C 242.075 170.423,242.005 171.000,242.081 171.075 C 242.157 171.151,242.218 171.055,242.218 170.862 C 242.218 170.668,242.371 170.218,242.557 169.862 C 242.931 169.144,242.995 168.647,242.714 168.647 C 242.613 168.647,242.398 169.163,242.237 169.793 M241.276 173.345 C 240.907 174.191,240.915 174.580,241.293 174.178 C 241.493 173.966,241.869 172.496,241.724 172.496 C 241.681 172.496,241.479 172.878,241.276 173.345 M175.722 173.331 C 175.939 173.388,176.296 173.388,176.514 173.331 C 176.732 173.274,176.553 173.227,176.118 173.227 C 175.682 173.227,175.504 173.274,175.722 173.331 M240.090 176.496 C 239.680 177.698,239.749 178.108,240.170 176.974 C 240.321 176.565,240.539 176.053,240.655 175.835 C 240.780 175.597,240.781 175.439,240.657 175.439 C 240.543 175.439,240.288 175.914,240.090 176.496 M239.193 178.706 C 238.776 179.342,238.738 179.513,239.013 179.513 C 239.226 179.513,239.796 178.374,239.654 178.232 C 239.604 178.182,239.397 178.395,239.193 178.706 M238.006 181.462 C 237.818 181.911,237.721 182.336,237.791 182.405 C 237.860 182.475,237.917 182.476,237.917 182.408 C 237.917 182.341,238.072 181.916,238.260 181.465 C 238.448 181.014,238.545 180.645,238.475 180.645 C 238.405 180.645,238.193 181.013,238.006 181.462 M236.874 183.499 C 236.408 184.615,236.571 184.653,237.192 183.573 C 237.474 183.083,237.594 182.683,237.460 182.683 C 237.325 182.683,237.062 183.050,236.874 183.499 M235.803 185.399 C 235.582 185.772,235.507 186.078,235.635 186.078 C 235.763 186.078,236.026 185.772,236.220 185.399 C 236.413 185.025,236.488 184.720,236.387 184.720 C 236.287 184.720,236.023 185.025,235.803 185.399 M235.029 186.754 C 234.577 187.479,234.707 187.777,235.201 187.148 C 235.450 186.832,235.654 186.512,235.654 186.439 C 235.654 186.147,235.295 186.329,235.029 186.754 M233.733 188.788 C 233.453 189.329,233.446 189.438,233.696 189.342 C 234.076 189.196,234.605 188.115,234.296 188.115 C 234.178 188.115,233.924 188.418,233.733 188.788 M233.000 189.983 C 232.582 190.524,232.459 190.832,232.661 190.832 C 232.773 190.832,232.981 190.577,233.122 190.266 C 233.401 189.653,233.349 189.532,233.000 189.983 M231.549 191.794 C 231.245 192.361,229.043 195.011,227.786 196.321 C 227.338 196.788,227.070 197.170,227.191 197.170 C 227.450 197.170,228.834 195.740,230.255 194.001 C 231.690 192.247,232.328 191.285,232.055 191.285 C 231.926 191.285,231.699 191.514,231.549 191.794 M226.594 197.742 C 226.157 198.269,226.469 198.368,226.937 197.851 C 227.163 197.601,227.243 197.397,227.114 197.397 C 226.986 197.397,226.752 197.552,226.594 197.742 M136.930 199.754 C 137.974 200.761,139.123 201.879,139.483 202.238 C 139.843 202.598,140.211 202.815,140.301 202.721 C 140.391 202.627,140.170 202.333,139.810 202.068 C 138.565 201.149,136.717 199.243,136.779 198.943 C 136.814 198.777,136.715 198.667,136.559 198.698 C 136.404 198.729,136.276 198.653,136.276 198.529 C 136.276 198.404,136.123 198.302,135.937 198.302 C 135.750 198.302,135.597 198.217,135.597 198.114 C 135.597 198.010,135.470 197.925,135.314 197.924 C 135.158 197.924,135.885 198.747,136.930 199.754 M225.462 198.874 C 225.025 199.401,225.337 199.500,225.805 198.983 C 226.031 198.733,226.111 198.529,225.982 198.529 C 225.854 198.529,225.620 198.684,225.462 198.874 M223.669 200.519 C 221.010 202.852,220.572 203.219,219.864 203.709 C 219.460 203.990,219.128 204.318,219.128 204.440 C 219.128 204.708,220.422 203.725,222.864 201.603 C 223.860 200.738,224.770 199.948,224.886 199.849 C 225.002 199.749,225.049 199.620,224.990 199.561 C 224.931 199.502,224.337 199.933,223.669 200.519 M140.577 202.931 C 140.577 203.119,142.416 204.462,142.525 204.353 C 142.588 204.290,142.176 203.924,141.609 203.541 C 141.041 203.158,140.577 202.884,140.577 202.931 M143.446 205.245 C 143.841 205.597,144.504 206.076,144.918 206.310 L 145.671 206.733 145.105 206.189 C 144.793 205.889,144.131 205.410,143.633 205.124 L 142.728 204.604 143.446 205.245 M218.191 205.106 C 217.685 205.547,217.683 205.559,218.154 205.331 C 218.427 205.199,218.713 204.990,218.790 204.866 C 219.012 204.506,218.768 204.604,218.191 205.106 M216.708 206.116 L 216.072 206.687 216.683 206.425 C 217.018 206.282,217.346 206.025,217.411 205.855 C 217.581 205.413,217.428 205.469,216.708 206.116 M215.054 207.131 C 214.743 207.374,214.604 207.576,214.746 207.578 C 214.888 207.581,215.244 207.383,215.538 207.138 C 216.233 206.559,215.794 206.552,215.054 207.131 M146.489 207.315 C 147.362 207.980,148.743 208.775,148.846 208.672 C 148.974 208.543,146.524 206.904,146.203 206.904 C 146.064 206.904,146.192 207.089,146.489 207.315 M213.515 208.082 C 213.105 208.336,212.815 208.589,212.872 208.646 C 213.031 208.805,214.375 208.053,214.375 207.804 C 214.375 207.536,214.425 207.520,213.515 208.082 M166.440 208.645 C 166.658 208.702,167.015 208.702,167.233 208.645 C 167.450 208.588,167.272 208.541,166.836 208.541 C 166.401 208.541,166.222 208.588,166.440 208.645 M174.363 208.645 C 174.581 208.702,174.938 208.702,175.156 208.645 C 175.374 208.588,175.195 208.541,174.759 208.541 C 174.324 208.541,174.145 208.588,174.363 208.645 M149.537 209.100 C 150.021 209.600,150.764 209.932,150.764 209.650 C 150.764 209.495,150.264 209.185,149.311 208.748 C 149.196 208.695,149.298 208.854,149.537 209.100 M211.375 209.186 C 210.690 209.585,210.946 209.876,211.658 209.508 C 212.032 209.314,212.337 209.108,212.337 209.049 C 212.337 208.866,211.791 208.944,211.375 209.186 M151.317 210.194 C 151.558 210.377,151.889 210.526,152.052 210.526 C 152.215 210.526,152.349 210.628,152.349 210.753 C 152.349 210.877,152.450 210.979,152.575 210.979 C 153.059 210.979,152.764 210.592,152.001 210.229 C 151.024 209.763,150.726 209.748,151.317 210.194 M209.677 210.242 C 209.273 210.444,208.942 210.683,208.942 210.773 C 208.942 210.864,209.349 210.741,209.847 210.500 C 210.345 210.260,210.753 210.014,210.753 209.955 C 210.753 209.776,210.452 209.857,209.677 210.242 M153.028 210.854 C 153.028 210.994,156.359 212.667,157.113 212.906 C 157.358 212.984,157.555 212.942,157.555 212.812 C 157.555 212.682,157.002 212.416,156.326 212.219 C 155.650 212.023,154.861 211.677,154.572 211.452 C 154.013 211.015,153.028 210.634,153.028 210.854 M207.923 211.028 C 207.418 211.319,206.805 211.885,206.994 211.885 C 207.294 211.885,208.715 211.103,208.715 210.937 C 208.715 210.687,208.464 210.716,207.923 211.028 M204.810 212.405 C 204.468 212.540,204.188 212.733,204.188 212.834 C 204.188 213.100,204.323 213.066,205.261 212.564 C 206.150 212.087,205.868 211.987,204.810 212.405 M158.574 213.330 C 158.947 213.500,159.508 213.702,159.819 213.778 C 160.273 213.890,160.251 213.856,159.706 213.608 C 159.332 213.438,158.772 213.236,158.461 213.160 C 158.006 213.048,158.028 213.082,158.574 213.330 M202.037 213.591 C 201.664 213.762,201.511 213.901,201.698 213.901 C 201.885 213.901,202.343 213.762,202.716 213.591 C 203.090 213.419,203.243 213.280,203.056 213.280 C 202.869 213.280,202.411 213.419,202.037 213.591 M161.404 214.239 C 161.404 214.387,161.949 214.627,162.988 214.935 C 163.500 215.086,163.521 215.068,163.211 214.744 C 162.863 214.378,161.404 213.971,161.404 214.239 M198.805 214.524 C 198.397 214.726,198.107 214.934,198.161 214.988 C 198.318 215.145,200.113 214.548,200.113 214.339 C 200.113 214.050,199.629 214.118,198.805 214.524 M165.139 215.402 C 165.804 215.656,168.195 216.103,168.195 215.974 C 168.195 215.816,165.798 215.267,165.238 215.298 C 165.059 215.308,165.014 215.355,165.139 215.402 M194.680 215.620 C 193.330 216.011,193.987 216.019,195.699 215.633 C 196.544 215.442,196.801 215.326,196.378 215.326 C 196.005 215.325,195.241 215.457,194.680 215.620 M170.006 216.350 C 170.006 216.613,173.783 217.194,174.428 217.030 C 174.673 216.968,174.409 216.905,173.843 216.891 C 173.276 216.877,172.716 216.769,172.598 216.652 C 172.285 216.343,170.006 216.078,170.006 216.350 M189.813 216.451 C 189.315 216.569,188.449 216.747,187.889 216.848 C 186.918 217.022,186.907 217.032,187.663 217.059 C 188.739 217.098,191.348 216.662,191.613 216.399 C 191.880 216.134,191.058 216.158,189.813 216.451 " stroke="none" fill="#a5344c" fill-rule="evenodd"></path></g></svg>