<svg width="63" height="18" viewBox="0 0 63 18" fill="none" xmlns="http://www.w3.org/2000/svg">
<g clip-path="url(#clip0_26_29)">
<path d="M12.0394 6.46236C13.2247 7.2882 14.6768 7.7742 16.245 7.7742V4.83263C15.9482 4.83266 15.6522 4.80249 15.3618 4.74263V7.05804C13.7937 7.05804 12.3419 6.57203 11.1562 5.74619V11.7492C11.1562 14.7522 8.65883 17.1864 5.57823 17.1864C4.42885 17.1864 3.36044 16.8476 2.47302 16.2667C3.48582 17.2763 4.89852 17.9026 6.46122 17.9026C9.54206 17.9026 12.0395 15.4684 12.0395 12.4654V6.46224L12.0394 6.46236ZM13.129 3.49475C12.5058 2.83275 12.123 1.98936 12.0394 1.09439V0.716034H11.2025C11.4131 1.88747 12.1317 2.88815 13.129 3.49475V3.49475ZM4.42147 13.9622C4.08305 13.5297 3.90013 13.0005 3.90098 12.4565C3.90098 11.0831 5.04323 9.96948 6.4526 9.96948C6.71519 9.96948 6.97629 10.0086 7.22657 10.086V7.0788C6.93407 7.03968 6.63888 7.02307 6.34371 7.02912V9.36996C6.09327 9.29253 5.83209 9.25322 5.56937 9.25343C4.16 9.25343 3.01775 10.3669 3.01775 11.7406C3.01775 12.7117 3.58869 13.5526 4.42147 13.9622V13.9622Z" fill="#FF004F"/>
<path d="M11.1562 5.74619C12.3419 6.57203 13.7937 7.05791 15.3619 7.05791V4.74251C14.5026 4.56337 13.722 4.12717 13.129 3.49475C12.1317 2.88815 11.4131 1.88735 11.2024 0.716034H9.00409V12.465C8.99917 13.8347 7.85865 14.9437 6.45247 14.9437C5.62375 14.9437 4.88743 14.5586 4.42121 13.9622C3.58867 13.5526 3.01761 12.7117 3.01761 11.7406C3.01761 10.367 4.15986 9.25343 5.56924 9.25343C5.8392 9.25343 6.09957 9.29447 6.34357 9.36995V7.02923C3.31711 7.09019 0.883118 9.50063 0.883118 12.4651C0.883118 13.945 1.48925 15.2864 2.47301 16.2667C3.39115 16.8679 4.47244 17.1881 5.57834 17.1863C8.65894 17.1863 11.1563 14.752 11.1563 11.7491V5.74619H11.1562Z" fill="black"/>
<path d="M15.3618 4.7424V4.11636C14.5724 4.11754 13.7987 3.90209 13.129 3.49464C13.7218 4.12727 14.5024 4.56354 15.3618 4.74252V4.7424ZM11.2024 0.71616C11.1823 0.604257 11.1669 0.491605 11.1562 0.37848V0H8.12072V11.7491C8.1158 13.1185 6.97565 14.2276 5.56922 14.2276C5.17052 14.2282 4.77725 14.1373 4.4212 13.9624C4.88754 14.5588 5.62373 14.9437 6.45245 14.9437C7.85851 14.9437 8.99916 13.8348 9.00408 12.4651V0.71604H11.2024V0.71616ZM6.34368 7.02936V6.36288C6.09004 6.32906 5.83433 6.31214 5.57833 6.31224C2.49748 6.312 0 8.74632 0 11.7491C0 13.6315 0.981545 15.2906 2.47312 16.2666C1.48936 15.2864 0.88323 13.9448 0.88323 12.465C0.88323 9.50064 3.3171 7.0902 6.34368 7.02924V7.02936Z" fill="#00F2EA"/>
<path d="M50.534 14.7246C52.7383 14.7246 54.5253 12.996 54.5253 10.8637C54.5253 8.73155 52.7383 7.00259 50.534 7.00259H49.9324C52.1368 7.00259 53.9238 8.73155 53.9238 10.8637C53.9238 12.996 52.1368 14.7246 49.9324 14.7246H50.5339H50.534Z" fill="#FF004F"/>
<path d="M49.8782 7.00259H49.2769C47.0726 7.00259 45.2852 8.73155 45.2852 10.8637C45.2852 12.996 47.0726 14.7246 49.2769 14.7246H49.8782C47.6736 14.7246 45.8865 12.996 45.8865 10.8637C45.8865 8.73155 47.6736 7.00259 49.8782 7.00259V7.00259Z" fill="#00F2EA"/>
<path d="M32.8197 5.25757V9.64681L35.1156 7.42561H37.9038L35.0061 10.176L38.232 14.7245H35.7719L33.5305 11.6038L32.8197 12.2389V14.6717H30.5232V5.25757H32.8197ZM57.587 5.25757V9.64681L59.8835 7.42561H62.6717L59.774 10.176L63 14.7247H60.5395L58.2976 11.604L57.587 12.2392V14.6719H55.2902V5.25757H57.587ZM49.9323 7.00261C52.1367 7.00261 53.9239 8.73157 53.9239 10.8637C53.9239 12.996 52.1367 14.7246 49.9323 14.7246H49.8779C47.6735 14.7246 45.8865 12.996 45.8865 10.8637C45.8865 8.73157 47.6735 7.00261 49.8779 7.00261H49.9323ZM26.8058 5.25757L26.1495 7.26745H24.2362V14.6718H21.8846V7.21465H19.5341V5.25745H26.8056L26.8058 5.25757ZM46.0509 5.25757L45.3949 7.26745H43.4816V14.6718H41.13V7.21465H38.7794V5.25745H46.0509V5.25757ZM29.5389 8.27233V14.6719H27.2433V8.27233H29.5389ZM49.9056 8.98645C48.8336 8.98645 47.9642 9.82657 47.9642 10.8637C47.9642 11.9009 48.8336 12.7414 49.9056 12.7416C50.977 12.7416 51.8463 11.9009 51.8463 10.8637C51.8463 9.82657 50.977 8.98645 49.9056 8.98645ZM28.3906 5.25757C29.0252 5.25757 29.5389 5.75497 29.5389 6.36817C29.5389 6.98137 29.0255 7.47877 28.3906 7.47877C27.7565 7.47853 27.2433 6.98149 27.2433 6.36817C27.2433 5.75497 27.7565 5.25757 28.3906 5.25757Z" fill="black"/>
</g>
<defs>
<clipPath id="clip0_26_29">
<rect width="63" height="18" fill="white"/>
</clipPath>
</defs>
</svg>
